<?xml version="1.0" encoding="UTF-8"?>
<svg xmlns="http://www.w3.org/2000/svg" xmlns:xlink="http://www.w3.org/1999/xlink"
    style="display: none;">
    <defs>
        <symbol id="full-star" viewBox="0 0 24 24">
            <path
                d="M11.9996 17.4425L7.33758 20.2542C7.18042 20.3496 7.01684 20.3921 6.84684 20.3817C6.677 20.3714 6.52575 20.3186 6.39309 20.2232C6.26042 20.1281 6.16192 20.0048 6.09758 19.8535C6.03342 19.7023 6.01992 19.5314 6.05708 19.3407L7.28809 14.0287L3.17633 10.4417C3.027 10.3132 2.93583 10.1682 2.90283 10.0065C2.86983 9.84499 2.874 9.68757 2.91533 9.53423C2.95267 9.3809 3.03867 9.25149 3.17333 9.14599C3.30783 9.04032 3.47042 8.97915 3.66108 8.96248L9.09784 8.48748L11.2038 3.46949C11.2785 3.29565 11.3915 3.16623 11.5428 3.08123C11.694 2.99623 11.8463 2.95374 11.9996 2.95374C12.1529 2.95374 12.3052 2.99623 12.4563 3.08123C12.6077 3.16623 12.7207 3.29565 12.7953 3.46949L14.9013 8.48748L20.3441 8.96248C20.5308 8.97915 20.6913 9.04032 20.8258 9.14599C20.9605 9.25149 21.0465 9.3809 21.0838 9.53423C21.1252 9.68757 21.1293 9.84499 21.0963 10.0065C21.0633 10.1682 20.9722 10.3132 20.8228 10.4417L16.7111 14.0287L17.9421 19.3407C17.9793 19.5314 17.9658 19.7023 17.9016 19.8535C17.8373 20.0048 17.7388 20.1281 17.6061 20.2232C17.4734 20.3186 17.3222 20.3714 17.1523 20.3817C16.9823 20.3921 16.8188 20.3496 16.6616 20.2542L11.9996 17.4425Z" />
        </symbol>

        <symbol id="star-half" viewBox="0 0 24 24">
            <path
                d="M11.9996 5.99948V15.4592L15.8408 17.7805L14.8088 13.432L18.1871 10.4917L13.7328 10.1037L11.9996 5.99948ZM11.9996 17.4425L7.33758 20.2542C7.18042 20.3496 7.01684 20.3921 6.84684 20.3817C6.677 20.3714 6.52575 20.3186 6.39309 20.2232C6.26042 20.1281 6.16192 20.0048 6.09758 19.8535C6.03342 19.7023 6.01992 19.5314 6.05708 19.3407L7.28809 14.0287L3.17633 10.4417C3.027 10.3132 2.93583 10.1682 2.90283 10.0065C2.86983 9.84499 2.874 9.68757 2.91533 9.53423C2.95267 9.3809 3.03867 9.25149 3.17333 9.14599C3.30783 9.04032 3.47042 8.97915 3.66108 8.96248L9.09784 8.48748L11.2038 3.46949C11.2785 3.29565 11.3915 3.16623 11.5428 3.08123C11.694 2.99623 11.8463 2.95374 11.9996 2.95374C12.1529 2.95374 12.3052 2.99623 12.4563 3.08123C12.6077 3.16623 12.7207 3.29565 12.7953 3.46949L14.9013 8.48748L20.3441 8.96248C20.5308 8.97915 20.6913 9.04032 20.8258 9.14599C20.9605 9.25149 21.0465 9.3809 21.0838 9.53423C21.1252 9.68757 21.1293 9.84499 21.0963 10.0065C21.0633 10.1682 20.9722 10.3132 20.8228 10.4417L16.7111 14.0287L17.9421 19.3407C17.9793 19.5314 17.9658 19.7023 17.9016 19.8535C17.8373 20.0048 17.7388 20.1281 17.6061 20.2232C17.4734 20.3186 17.3222 20.3714 17.1523 20.3817C16.9823 20.3921 16.8188 20.3496 16.6616 20.2542L11.9996 17.4425Z" />
        </symbol>

        <symbol id="empty-star" viewBox="0 0 24 24">
            <path
                d="M12 17.4426L7.33801 20.2544C7.18085 20.3497 7.01726 20.3922 6.84726 20.3819C6.67743 20.3715 6.52618 20.3187 6.39351 20.2234C6.26085 20.1282 6.16235 20.0049 6.09801 19.8536C6.03385 19.7024 6.02035 19.5315 6.05751 19.3409L7.28851 14.0289L3.17676 10.4419C3.02743 10.3134 2.93626 10.1683 2.90326 10.0066C2.87026 9.84511 2.87443 9.68769 2.91576 9.53436C2.9531 9.38102 3.0391 9.25161 3.17376 9.14611C3.30826 9.04044 3.47085 8.97927 3.66151 8.96261L9.09826 8.48761L11.2043 3.46961C11.2789 3.29577 11.3919 3.16636 11.5433 3.08136C11.6944 2.99636 11.8467 2.95386 12 2.95386C12.1533 2.95386 12.3056 2.99636 12.4568 3.08136C12.6081 3.16636 12.7211 3.29577 12.7958 3.46961L14.9018 8.48761L20.3445 8.96261C20.5312 8.97927 20.6918 9.04044 20.8263 9.14611C20.9609 9.25161 21.0469 9.38102 21.0843 9.53436C21.1256 9.68769 21.1298 9.84511 21.0968 10.0066C21.0638 10.1683 20.9726 10.3134 20.8233 10.4419L16.7115 14.0289L17.9425 19.3409C17.9797 19.5315 17.9662 19.7024 17.902 19.8536C17.8377 20.0049 17.7392 20.1282 17.6065 20.2234C17.4738 20.3187 17.3226 20.3715 17.1528 20.3819C16.9828 20.3922 16.8192 20.3497 16.662 20.2544L12 17.4426Z" />
        </symbol>

        <symbol id="left-arrow" viewBox="0 0 24 24">

            <path
                d="M7.09502 12.8518L12.5968 18.3533C12.7668 18.5236 12.8527 18.7236 12.8545 18.9533C12.8565 19.1829 12.7726 19.3836 12.6028 19.5553C12.4328 19.7274 12.2322 19.8125 12.001 19.8105C11.7699 19.8085 11.5686 19.7226 11.3973 19.5528L4.44727 12.6028C4.35627 12.5108 4.29011 12.4151 4.24877 12.3158C4.20727 12.2163 4.18652 12.1108 4.18652 11.9993C4.18652 11.8878 4.20727 11.7825 4.24877 11.6835C4.29011 11.5844 4.35627 11.4889 4.44727 11.3973L11.4033 4.44127C11.5791 4.27144 11.7805 4.18652 12.0075 4.18652C12.2344 4.18652 12.4328 4.27144 12.6028 4.44127C12.7726 4.61527 12.8575 4.81602 12.8575 5.04352C12.8575 5.27119 12.7726 5.47027 12.6028 5.64077L7.09502 11.1483H19.2978C19.5419 11.1483 19.7459 11.2291 19.9098 11.3908C20.0736 11.5524 20.1555 11.7555 20.1555 12C20.1555 12.2445 20.0736 12.4476 19.9098 12.6093C19.7459 12.7709 19.5419 12.8518 19.2978 12.8518H7.09502Z"
            />
        </symbol>

        <symbol id="right-arrow" viewBox="0 0 24 24">

            <path
                d="M16.9051 12.8517H4.70234C4.45767 12.8517 4.25459 12.7709 4.09309 12.6092C3.93142 12.4476 3.85059 12.2445 3.85059 12C3.85059 11.7555 3.93142 11.5524 4.09309 11.3907C4.25459 11.2291 4.45767 11.1482 4.70234 11.1482H16.9051L11.4033 5.64674C11.2333 5.47674 11.1473 5.27649 11.1451 5.04599C11.1428 4.81532 11.2267 4.61457 11.3968 4.44374C11.5672 4.27224 11.7679 4.18749 11.9991 4.18949C12.2303 4.19149 12.4315 4.2774 12.6028 4.44724L19.5528 11.3972C19.6438 11.4892 19.71 11.5849 19.7513 11.6842C19.7928 11.7837 19.8136 11.8892 19.8136 12.0007C19.8136 12.1122 19.7928 12.2175 19.7513 12.3165C19.71 12.4157 19.6438 12.5111 19.5528 12.6027L12.5968 19.5527C12.421 19.7266 12.2196 19.8135 11.9926 19.8135C11.7658 19.8135 11.5673 19.7261 11.3973 19.5512C11.2275 19.3811 11.1426 19.1823 11.1426 18.955C11.1426 18.7278 11.2275 18.5292 11.3973 18.3592L16.9051 12.8517Z"
            />
        </symbol>
    </defs>
</svg>