<svg width="44" height="44" viewBox="0 0 44 44" fill="none" xmlns="http://www.w3.org/2000/svg">
<path d="M36 1C39.866 1 43 4.13401 43 8V36C43 39.866 39.866 43 36 43H8C4.13401 43 1 39.866 1 36V8C1 4.13401 4.13401 1 8 1H36Z" stroke="black" stroke-width="2"/>
<path d="M13.7023 28.2213C13.4618 28.2213 13.2598 28.1391 13.0961 27.9746C12.9324 27.8101 12.8506 27.605 12.8506 27.3593C12.8506 27.1176 12.9324 26.916 13.0961 26.7543C13.2598 26.5928 13.4618 26.5121 13.7023 26.5121H30.2978C30.5383 26.5121 30.7414 26.5943 30.9071 26.7588C31.0728 26.9233 31.1556 27.1264 31.1556 27.3681C31.1556 27.6137 31.0728 27.8173 30.9071 27.9788C30.7414 28.1405 30.5383 28.2213 30.2978 28.2213H13.7023ZM13.7023 22.8518C13.4618 22.8518 13.2598 22.7695 13.0961 22.6048C12.9324 22.4403 12.8506 22.2372 12.8506 21.9956C12.8506 21.7541 12.9324 21.5525 13.0961 21.3908C13.2598 21.2291 13.4618 21.1483 13.7023 21.1483H30.2978C30.5383 21.1483 30.7414 21.2306 30.9071 21.3953C31.0728 21.5598 31.1556 21.7629 31.1556 22.0046C31.1556 22.2461 31.0728 22.4476 30.9071 22.6093C30.7414 22.771 30.5383 22.8518 30.2978 22.8518H13.7023ZM13.7023 17.4881C13.4618 17.4881 13.2598 17.4058 13.0961 17.2413C12.9324 17.0768 12.8506 16.8717 12.8506 16.6261C12.8506 16.3844 12.9324 16.1828 13.0961 16.0213C13.2598 15.8596 13.4618 15.7788 13.7023 15.7788H30.2978C30.5383 15.7788 30.7414 15.8611 30.9071 16.0256C31.0728 16.1901 31.1556 16.3931 31.1556 16.6348C31.1556 16.8805 31.0728 17.0841 30.9071 17.2458C30.7414 17.4073 30.5383 17.4881 30.2978 17.4881H13.7023Z" fill="black"/>
</svg>
