<svg width="44" height="44" viewBox="0 0 44 44" fill="none" xmlns="http://www.w3.org/2000/svg">
<path d="M36 1C39.866 1 43 4.13401 43 8V36C43 39.866 39.866 43 36 43H8C4.13401 43 1 39.866 1 36V8C1 4.13401 4.13401 1 8 1H36Z" stroke="black" stroke-width="2"/>
<path d="M27.5996 15.9248C27.7639 15.9248 27.8659 15.9733 27.9463 16.0537C28.0265 16.134 28.0751 16.2355 28.0752 16.3994C28.0752 16.5636 28.0266 16.6657 27.9463 16.7461L22.6924 22L23.0459 22.3535L27.9463 27.2529C28.0267 27.3333 28.0752 27.4355 28.0752 27.5996C28.0752 27.7639 28.0267 27.8659 27.9463 27.9463C27.8659 28.0267 27.7639 28.0752 27.5996 28.0752C27.4355 28.0752 27.3333 28.0267 27.2529 27.9463L22.3535 23.0459L22 22.6924L16.7461 27.9463C16.6657 28.0266 16.5636 28.0752 16.3994 28.0752C16.2355 28.0751 16.134 28.0265 16.0537 27.9463C15.9733 27.8659 15.9248 27.7639 15.9248 27.5996C15.9248 27.4355 15.9733 27.3333 16.0537 27.2529L21.3066 22L20.9531 21.6465L16.0537 16.7461C15.9733 16.6657 15.9248 16.5637 15.9248 16.3994C15.9249 16.2354 15.9734 16.134 16.0537 16.0537C16.134 15.9734 16.2354 15.9249 16.3994 15.9248C16.5637 15.9248 16.6657 15.9733 16.7461 16.0537L21.6465 20.9531L22 21.3066L27.2529 16.0537C27.3333 15.9733 27.4355 15.9248 27.5996 15.9248Z" fill="black" stroke="black"/>
</svg>
