<svg width="83" height="15" viewBox="0 0 83 15" fill="none" xmlns="http://www.w3.org/2000/svg">
<path d="M3.24302 13.6391H8.70205V12.2203H3.24302V13.6391ZM3.74549 5.6761H7.79927C7.91642 5.6761 8.01892 5.63212 8.10675 5.54415C8.19458 5.45619 8.2385 5.35356 8.2385 5.23627C8.2385 5.11884 8.19458 5.01554 8.10675 4.92636C8.01892 4.83731 7.91642 4.79279 7.79927 4.79279H3.74549C3.62442 4.79279 3.5201 4.83711 3.43254 4.92575C3.34498 5.01439 3.3012 5.1179 3.3012 5.23627C3.3012 5.3545 3.34498 5.4574 3.43254 5.54496C3.5201 5.63239 3.62442 5.6761 3.74549 5.6761ZM3.74549 3.61536H7.79927C7.91642 3.61536 8.01892 3.57158 8.10675 3.48402C8.19458 3.39646 8.2385 3.29302 8.2385 3.17371C8.2385 3.05425 8.19458 2.95075 8.10675 2.86319C8.01892 2.77562 7.91642 2.73184 7.79927 2.73184H3.74549C3.62442 2.73184 3.5201 2.77583 3.43254 2.86379C3.34498 2.95162 3.3012 3.05412 3.3012 3.17127C3.3012 3.29221 3.34498 3.39646 3.43254 3.48402C3.5201 3.57158 3.62442 3.61536 3.74549 3.61536ZM11.5348 6.68955V5.38139H13.46V3.02676H11.5348V1.7184H13.3872C13.7411 1.7184 14.0484 1.83751 14.3092 2.07574C14.5699 2.31383 14.7164 2.60496 14.7489 2.94913V3.55719H16.5487C16.7331 3.55719 16.8886 3.62063 17.0153 3.74752C17.142 3.8744 17.2053 4.03013 17.2053 4.21472C17.2053 4.38916 17.142 4.54125 17.0153 4.67097C16.8886 4.80056 16.7331 4.86535 16.5487 4.86535H14.7391V5.47341C14.7068 5.81434 14.561 6.10229 14.3017 6.33728C14.0424 6.57212 13.7376 6.68955 13.3872 6.68955H11.5348ZM8.29667 10.9122H6.98851V7.09493H10.2315V1.31302H3.34011C2.77258 1.31302 2.29289 1.50895 1.90102 1.90082C1.50915 2.29268 1.31322 2.77238 1.31322 3.33991V5.06804C1.31322 5.63557 1.50915 6.11526 1.90102 6.50713C2.29289 6.89899 2.77258 7.09493 3.34011 7.09493H4.96162V10.9122H3.6484V8.39842H3.24302C2.3416 8.37572 1.5757 8.0404 0.945342 7.39247C0.315114 6.74441 0 5.9696 0 5.06804V3.33991C0 2.42321 0.327072 1.63739 0.981217 0.982433C1.63523 0.327477 2.42153 0 3.34011 0H10.149C10.5335 0 10.8605 0.134856 11.1303 0.404568C11.4 0.674279 11.5348 1.00135 11.5348 1.38578V7.02236C11.5348 7.40666 11.4 7.73374 11.1303 8.00358C10.8605 8.27329 10.5335 8.40815 10.149 8.40815H8.29667V10.9122ZM2.96818 14.9524C2.67874 14.9524 2.43416 14.851 2.23444 14.6481C2.03473 14.4453 1.93487 14.2007 1.93487 13.9142V11.9455C1.93487 11.6585 2.03473 11.4145 2.23444 11.2136C2.43416 11.0126 2.67874 10.9122 2.96818 10.9122H8.97689C9.26539 10.9122 9.51051 11.0126 9.71225 11.2136C9.91413 11.4145 10.0151 11.6585 10.0151 11.9455V13.9142C10.0151 14.2007 9.91413 14.4453 9.71225 14.6481C9.51051 14.851 9.26539 14.9524 8.97689 14.9524H2.96818Z" fill="black"/>
<path d="M80.0766 3.18457V10.5519C80.0766 10.9175 80.1704 11.1843 80.3582 11.3523C80.5559 11.5203 80.8177 11.6043 81.1439 11.6043C81.4107 11.6043 81.6429 11.5648 81.8406 11.4857C82.0382 11.3968 82.221 11.2782 82.389 11.13L82.7448 12.2862C82.5175 12.4839 82.2359 12.642 81.8999 12.7606C81.5737 12.8693 81.2081 12.9236 80.8029 12.9236C80.378 12.9236 79.9876 12.8545 79.6319 12.7161C79.2761 12.5777 78.9994 12.3554 78.8017 12.049C78.6041 11.7328 78.5003 11.3227 78.4904 10.8187V3.62928L80.0766 3.18457ZM82.6262 5.36363V6.60881H77.0674V5.36363H82.6262Z" fill="black"/>
<path d="M71.0663 5.36377L73.1564 8.536L73.4529 8.58047L76.4621 12.7755H74.5795L72.4004 9.51436L72.0595 9.39577L69.1541 5.36377H71.0663ZM76.4176 5.36377L73.5122 9.33647L73.1861 9.32165L70.8143 12.7755H69.0059L72.1633 8.55083L72.4746 8.58047L74.5943 5.36377H76.4176Z" fill="black"/>
<path d="M65.0539 12.9236C64.3127 12.9236 63.6605 12.7704 63.0972 12.464C62.5339 12.1577 62.0941 11.7179 61.7779 11.1447C61.4715 10.5617 61.3184 9.86992 61.3184 9.06945C61.3184 8.26898 61.4715 7.58216 61.7779 7.00898C62.0941 6.42592 62.5289 5.98122 63.0824 5.67486C63.6358 5.36851 64.2633 5.21533 64.9649 5.21533C65.6864 5.21533 66.2991 5.36357 66.8031 5.66004C67.3071 5.95651 67.6925 6.36169 67.9593 6.87557C68.2261 7.38945 68.3595 7.97251 68.3595 8.62474C68.3595 8.80263 68.3546 8.97063 68.3447 9.12874C68.3348 9.28686 68.32 9.42522 68.3002 9.5438H62.3412V8.32827H67.6035L66.8179 8.56545C66.8179 7.89345 66.6499 7.37957 66.3139 7.0238C65.9779 6.65816 65.5184 6.47533 64.9353 6.47533C64.5104 6.47533 64.1398 6.57416 63.8235 6.7718C63.5073 6.96945 63.2652 7.26592 63.0972 7.66121C62.9292 8.04663 62.8452 8.52098 62.8452 9.08427C62.8452 9.63769 62.9341 10.1071 63.112 10.4925C63.2899 10.8779 63.5419 11.1694 63.868 11.3671C64.1941 11.5647 64.5795 11.6636 65.0242 11.6636C65.5184 11.6636 65.9186 11.5697 66.2249 11.3819C66.5313 11.1942 66.7734 10.9323 66.9513 10.5963L68.2113 11.1892C68.0334 11.545 67.7913 11.8563 67.4849 12.1231C67.1885 12.38 66.8327 12.5777 66.4177 12.716C66.0026 12.8544 65.548 12.9236 65.0539 12.9236Z" fill="black"/>
<path d="M59.3691 2.9917V12.7752H57.4866L53.7066 6.60864L52.7578 4.87429H52.743L52.8023 6.4604V12.7752H51.3496V2.9917H53.2174L56.9826 9.14346L57.9461 10.9075H57.9609L57.9016 9.30652V2.9917H59.3691Z" fill="black"/>
<path d="M48.1994 2.02832V10.7001C48.1994 11.0657 48.2636 11.3177 48.3921 11.4561C48.5206 11.5944 48.733 11.6636 49.0295 11.6636C49.2074 11.6636 49.3556 11.6537 49.4742 11.634C49.6027 11.6043 49.7608 11.5549 49.9486 11.4857L49.7707 12.6716C49.6027 12.7507 49.41 12.81 49.1926 12.8495C48.9752 12.8989 48.7578 12.9236 48.5403 12.9236C47.8782 12.9236 47.389 12.7556 47.0728 12.4196C46.7665 12.0737 46.6133 11.545 46.6133 10.8335V2.02832H48.1994Z" fill="black"/>
<path d="M41.1344 5.21533C41.8558 5.21533 42.4932 5.36851 43.0467 5.67486C43.6001 5.98122 44.0299 6.42592 44.3363 7.00898C44.6525 7.58216 44.8107 8.26898 44.8107 9.06945C44.8107 9.86992 44.6525 10.5617 44.3363 11.1447C44.0299 11.7179 43.6001 12.1577 43.0467 12.464C42.4932 12.7704 41.8558 12.9236 41.1344 12.9236C40.413 12.9236 39.7756 12.7704 39.2222 12.464C38.6688 12.1577 38.2339 11.7179 37.9177 11.1447C37.6015 10.5617 37.4434 9.86992 37.4434 9.06945C37.4434 8.26898 37.6015 7.58216 37.9177 7.00898C38.2339 6.42592 38.6688 5.98122 39.2222 5.67486C39.7756 5.36851 40.413 5.21533 41.1344 5.21533ZM41.1344 6.46051C40.6897 6.46051 40.3092 6.56427 39.993 6.7718C39.6867 6.96945 39.4495 7.26098 39.2815 7.64639C39.1135 8.0318 39.0295 8.50616 39.0295 9.06945C39.0295 9.62286 39.1135 10.0972 39.2815 10.4925C39.4495 10.8779 39.6867 11.1744 39.993 11.3819C40.3092 11.5796 40.6897 11.6784 41.1344 11.6784C41.5791 11.6784 41.9547 11.5796 42.261 11.3819C42.5674 11.1744 42.8045 10.8779 42.9725 10.4925C43.1405 10.0972 43.2245 9.62286 43.2245 9.06945C43.2245 8.50616 43.1405 8.0318 42.9725 7.64639C42.8045 7.26098 42.5674 6.96945 42.261 6.7718C41.9547 6.56427 41.5791 6.46051 41.1344 6.46051Z" fill="black"/>
<path d="M32.3942 5.21533C33.1156 5.21533 33.753 5.36851 34.3064 5.67486C34.8598 5.98122 35.2897 6.42592 35.5961 7.00898C35.9123 7.58216 36.0704 8.26898 36.0704 9.06945C36.0704 9.86992 35.9123 10.5617 35.5961 11.1447C35.2897 11.7179 34.8598 12.1577 34.3064 12.464C33.753 12.7704 33.1156 12.9236 32.3942 12.9236C31.6728 12.9236 31.0354 12.7704 30.4819 12.464C29.9285 12.1577 29.4937 11.7179 29.1775 11.1447C28.8612 10.5617 28.7031 9.86992 28.7031 9.06945C28.7031 8.26898 28.8612 7.58216 29.1775 7.00898C29.4937 6.42592 29.9285 5.98122 30.4819 5.67486C31.0354 5.36851 31.6728 5.21533 32.3942 5.21533ZM32.3942 6.46051C31.9495 6.46051 31.569 6.56427 31.2528 6.7718C30.9464 6.96945 30.7092 7.26098 30.5412 7.64639C30.3732 8.0318 30.2892 8.50616 30.2892 9.06945C30.2892 9.62286 30.3732 10.0972 30.5412 10.4925C30.7092 10.8779 30.9464 11.1744 31.2528 11.3819C31.569 11.5796 31.9495 11.6784 32.3942 11.6784C32.8389 11.6784 33.2144 11.5796 33.5208 11.3819C33.8271 11.1744 34.0643 10.8779 34.2323 10.4925C34.4003 10.0972 34.4843 9.62286 34.4843 9.06945C34.4843 8.50616 34.4003 8.0318 34.2323 7.64639C34.0643 7.26098 33.8271 6.96945 33.5208 6.7718C33.2144 6.56427 32.8389 6.46051 32.3942 6.46051Z" fill="black"/>
<path d="M29.1975 2.9917V4.35546H25.8474V12.7752H24.2613V4.35546H20.9111V2.9917H29.1975Z" fill="black"/>
</svg>
