<svg aria-hidden="true" style="position: absolute; width: 0; height: 0; overflow: hidden;" version="1.1" xmlns="http://www.w3.org/2000/svg" xmlns:xlink="http://www.w3.org/1999/xlink">
<defs>
<symbol id="icon-booking" viewBox="0 0 42 32">
<path d="M9.401 19.503h14.292c0.483 0 0.846-0.151 1.088-0.452s0.364-0.632 0.364-0.994c0-0.361-0.121-0.696-0.364-1.003s-0.605-0.461-1.088-0.461h-14.292c-0.411 0-0.755 0.14-1.034 0.421s-0.418 0.628-0.418 1.042c0 0.414 0.139 0.759 0.418 1.034s0.624 0.412 1.034 0.412zM9.403 10.955h8.291c0.412 0 0.758-0.14 1.036-0.421s0.418-0.628 0.418-1.042c0-0.414-0.139-0.759-0.418-1.034s-0.624-0.412-1.036-0.412h-8.291c-0.412 0-0.758 0.14-1.037 0.42s-0.418 0.628-0.418 1.042c0 0.415 0.139 0.759 0.418 1.034s0.624 0.412 1.037 0.412zM3.303 27.731c-0.916 0-1.696-0.321-2.339-0.964s-0.964-1.423-0.964-2.339v-21.113c0-0.92 0.321-1.702 0.964-2.347s1.423-0.968 2.339-0.968h32.761c0.92 0 1.702 0.323 2.347 0.968s0.968 1.428 0.968 2.347v4.615c0 0.466-0.162 0.858-0.485 1.175s-0.72 0.476-1.187 0.476c-0.468 0-0.859-0.159-1.172-0.476s-0.47-0.709-0.47-1.175v-4.615h-32.761v21.065h14.441c0.466 0 0.858 0.16 1.175 0.479s0.477 0.713 0.477 1.182-0.159 0.868-0.477 1.197c-0.317 0.33-0.709 0.495-1.175 0.495h-14.441zM41.041 13.842c0.208 0.208 0.312 0.462 0.312 0.763s-0.106 0.553-0.318 0.757l-1.753 1.765-2.703-2.703 1.856-1.868c0.193-0.2 0.413-0.301 0.66-0.301s0.467 0.1 0.66 0.301l1.286 1.286zM37.987 18.422l-12.752 12.752c-0.179 0.177-0.364 0.302-0.555 0.374s-0.388 0.109-0.591 0.109h-1.23c-0.217 0-0.408-0.082-0.573-0.247s-0.247-0.356-0.247-0.573v-1.218c0-0.203 0.038-0.401 0.114-0.594s0.203-0.377 0.38-0.553l12.752-12.752 2.703 2.703z"></path>
</symbol>
<symbol id="icon-operation" viewBox="0 0 38 32">
<path d="M14.9 14.261c-2.093 0-3.804-0.665-5.134-1.994s-1.995-3.041-1.995-5.134 0.665-3.805 1.995-5.136c1.329-1.331 3.041-1.997 5.134-1.997s3.807 0.666 5.142 1.997c1.335 1.331 2.002 3.043 2.002 5.136s-0.667 3.805-2.002 5.134c-1.335 1.329-3.048 1.994-5.142 1.994zM0 26.378v-1.477c0-1.148 0.292-2.182 0.877-3.102s1.38-1.612 2.389-2.077c1.765-0.785 3.585-1.429 5.459-1.931s3.794-0.753 5.759-0.753c0.448 0 0.822 0.15 1.12 0.449s0.448 0.67 0.448 1.111c0 0.449-0.152 0.824-0.454 1.125s-0.674 0.451-1.114 0.451c-1.731 0-3.426 0.208-5.085 0.624s-3.268 1.014-4.829 1.794c-0.422 0.241-0.77 0.568-1.044 0.979s-0.411 0.869-0.411 1.372v1.434h11.426c0.44 0 0.809 0.15 1.108 0.451s0.449 0.672 0.449 1.114c0 0.442-0.15 0.811-0.449 1.106s-0.669 0.443-1.108 0.443h-11.426c-0.864 0-1.599-0.305-2.205-0.915s-0.909-1.343-0.909-2.199zM27.080 30.245l-0.309-1.933c-0.503-0.145-1.015-0.359-1.533-0.641s-0.954-0.602-1.305-0.961l-1.693 0.355c-0.265 0.068-0.518 0.051-0.758-0.050s-0.427-0.267-0.562-0.496l-0.281-0.479c-0.163-0.265-0.221-0.535-0.176-0.808s0.171-0.508 0.376-0.706l1.476-1.384c-0.068-0.252-0.101-0.617-0.097-1.093s0.036-0.837 0.097-1.081l-1.487-1.408c-0.197-0.165-0.318-0.389-0.364-0.67s0.011-0.541 0.172-0.777l0.284-0.57c0.135-0.232 0.313-0.391 0.534-0.476s0.464-0.097 0.73-0.036l1.75 0.355c0.351-0.351 0.786-0.67 1.305-0.955s1.030-0.498 1.533-0.636l0.309-1.922c0.062-0.338 0.213-0.613 0.453-0.823s0.518-0.315 0.837-0.315h0.412c0.311 0 0.585 0.106 0.823 0.317s0.391 0.482 0.459 0.81l0.313 1.931c0.494 0.139 1.002 0.351 1.525 0.637s0.959 0.604 1.309 0.955l1.706-0.355c0.258-0.061 0.509-0.042 0.751 0.056s0.428 0.266 0.558 0.502l0.279 0.465c0.164 0.275 0.221 0.547 0.171 0.817s-0.176 0.502-0.381 0.7l-1.476 1.395c0.076 0.25 0.112 0.612 0.108 1.086s-0.040 0.838-0.108 1.090l1.472 1.381c0.207 0.176 0.335 0.407 0.384 0.692s-0.006 0.544-0.166 0.779l-0.285 0.57c-0.136 0.235-0.317 0.393-0.54 0.473s-0.468 0.089-0.734 0.028l-1.739-0.355c-0.351 0.358-0.788 0.679-1.31 0.961s-1.032 0.496-1.528 0.641l-0.309 1.922c-0.069 0.336-0.224 0.608-0.464 0.816s-0.517 0.312-0.831 0.312h-0.402c-0.313 0-0.591-0.104-0.832-0.313s-0.393-0.476-0.454-0.805zM28.571 25.645c1.074 0 1.941-0.33 2.601-0.989s0.991-1.529 0.991-2.608-0.33-1.948-0.991-2.608c-0.66-0.659-1.528-0.989-2.602-0.989s-1.943 0.33-2.606 0.991c-0.663 0.66-0.995 1.527-0.995 2.601 0 1.082 0.332 1.954 0.996 2.613s1.533 0.989 2.607 0.989zM14.9 11.146c1.161 0 2.121-0.379 2.88-1.136s1.138-1.718 1.138-2.879c0-1.165-0.379-2.125-1.136-2.881s-1.716-1.135-2.877-1.135-2.121 0.378-2.88 1.135c-0.759 0.757-1.138 1.715-1.138 2.875 0 1.163 0.379 2.124 1.136 2.883s1.716 1.138 2.877 1.138z"></path>
</symbol>
<symbol id="icon-access" viewBox="0 0 38 32">
<path d="M10.468 5.205v-2.331c0-0.79 0.279-1.467 0.837-2.030s1.233-0.844 2.027-0.844h10.365c0.793 0 1.469 0.281 2.026 0.844s0.837 1.239 0.837 2.030v2.331h2.926c0.592 0 1.143 0.146 1.651 0.438s0.88 0.718 1.115 1.28l4.458 10.573c0.174 0.356 0.288 0.721 0.341 1.094s0.080 0.747 0.080 1.121v8.948c0 0.864-0.304 1.599-0.912 2.205s-1.346 0.909-2.213 0.909h-30.889c-0.864 0-1.599-0.303-2.205-0.909s-0.909-1.341-0.909-2.205v-8.948c0-0.374 0.026-0.747 0.080-1.121s0.163-0.738 0.33-1.094l4.367-10.573c0.235-0.562 0.607-0.989 1.115-1.28s1.058-0.438 1.651-0.438h2.926zM13.331 5.205h10.365v-2.331h-10.365v2.331zM9.697 17.376v-0.777c0-0.389 0.132-0.714 0.397-0.977s0.592-0.394 0.983-0.394c0.391 0 0.717 0.131 0.977 0.394s0.391 0.589 0.391 0.977v0.777h12.227v-0.777c0-0.389 0.133-0.714 0.4-0.977s0.594-0.394 0.985-0.394c0.391 0 0.716 0.131 0.975 0.394s0.389 0.589 0.389 0.977v0.777h5.806l-3.772-9.045h-21.791l-3.772 9.045h5.806zM9.697 20.118h-6.583v8.542h30.889v-8.542h-6.583v0.777c0 0.389-0.132 0.714-0.397 0.977s-0.592 0.395-0.983 0.395c-0.391 0-0.717-0.131-0.977-0.395s-0.391-0.588-0.391-0.977v-0.777h-12.227v0.777c0 0.389-0.133 0.714-0.4 0.977s-0.594 0.395-0.985 0.395c-0.391 0-0.716-0.131-0.975-0.395s-0.389-0.588-0.389-0.977v-0.777z"></path>
</symbol>
</defs>
</svg>
